<svg width="105" height="41" viewBox="0 0 105 41" fill="none" xmlns="http://www.w3.org/2000/svg">
<circle cx="15.4457" cy="15.2612" r="14.9643" fill="#1967FE"/>
<path d="M22.0815 15.3359C22.0815 18.944 19.1564 21.8691 15.5487 21.8691C11.9405 21.8691 9.01581 18.944 9.01581 15.3359C9.01581 11.728 11.9405 8.80298 15.5487 8.80298C19.1564 8.80298 22.0815 11.728 22.0815 15.3359Z" fill="white"/>
<path d="M23.7599 17.5358L27.5767 15.3323L23.7599 13.1289L25.9635 9.31235L21.5567 9.31255V4.90535L17.7401 7.10895L15.5367 3.29236L13.3331 7.10895L9.5167 4.90535V9.31235H5.10949L7.3131 13.1289L3.4967 15.3323L7.3131 17.5356L5.10949 21.3525L9.5167 21.3523V25.7594L13.3329 23.5558L15.5367 27.3725L17.7399 23.5558L21.5567 25.7594L21.5563 21.3525H25.9635L23.7599 17.5358ZM8.28838 15.3323C8.28838 11.3359 11.5398 8.08424 15.5367 8.08424C19.5332 8.08424 22.7848 11.3359 22.7848 15.3323C22.7848 19.329 19.5332 22.5807 15.5367 22.5807C11.5398 22.5807 8.28838 19.329 8.28838 15.3323Z" fill="white"/>
<g filter="url(#filter0_d_7_10602)">
<path d="M54.6149 27.6224V11.1632H57.3892V13.1426H57.5529C57.6984 12.8517 57.9036 12.5426 58.1686 12.2153C58.4335 11.8827 58.792 11.5996 59.244 11.3658C59.696 11.1268 60.2727 11.0073 60.9741 11.0073C61.8989 11.0073 62.7328 11.2437 63.4757 11.7165C64.2239 12.1841 64.8162 12.8777 65.2526 13.7973C65.6942 14.7117 65.915 15.8339 65.915 17.1639C65.915 18.4784 65.6994 19.5954 65.2682 20.515C64.837 21.4346 64.2499 22.136 63.5069 22.6192C62.764 23.1024 61.9223 23.344 60.9819 23.344C60.2961 23.344 59.7272 23.2297 59.2752 23.0011C58.8232 22.7725 58.4595 22.4971 58.1842 22.175C57.914 21.8477 57.7036 21.5385 57.5529 21.2476H57.436V27.6224H54.6149ZM57.3815 17.1484C57.3815 17.9225 57.4906 18.6005 57.7088 19.1824C57.9322 19.7643 58.2517 20.2189 58.6673 20.5462C59.0882 20.8683 59.5973 21.0294 60.1948 21.0294C60.8183 21.0294 61.3404 20.8631 61.7612 20.5306C62.1821 20.1929 62.499 19.7331 62.712 19.1512C62.9302 18.5641 63.0393 17.8965 63.0393 17.1484C63.0393 16.4054 62.9328 15.7456 62.7198 15.1689C62.5068 14.5922 62.1899 14.1402 61.769 13.8129C61.3482 13.4855 60.8235 13.3219 60.1948 13.3219C59.5921 13.3219 59.0804 13.4803 58.6595 13.7973C58.2387 14.1142 57.9192 14.5584 57.701 15.1299C57.488 15.7014 57.3815 16.3742 57.3815 17.1484ZM71.9832 23.3673C70.8142 23.3673 69.8011 23.1102 68.9438 22.5958C68.0866 22.0815 67.4216 21.3619 66.9488 20.4371C66.4812 19.5123 66.2474 18.4316 66.2474 17.1951C66.2474 15.9586 66.4812 14.8753 66.9488 13.9453C67.4216 13.0154 68.0866 12.2932 68.9438 11.7788C69.8011 11.2645 70.8142 11.0073 71.9832 11.0073C73.1522 11.0073 74.1653 11.2645 75.0225 11.7788C75.8798 12.2932 76.5422 13.0154 77.0098 13.9453C77.4826 14.8753 77.719 15.9586 77.719 17.1951C77.719 18.4316 77.4826 19.5123 77.0098 20.4371C76.5422 21.3619 75.8798 22.0815 75.0225 22.5958C74.1653 23.1102 73.1522 23.3673 71.9832 23.3673ZM71.9988 21.1073C72.6326 21.1073 73.1626 20.9333 73.5886 20.5852C74.0146 20.2319 74.3315 19.7591 74.5394 19.1668C74.7524 18.5745 74.8589 17.9147 74.8589 17.1873C74.8589 16.4548 74.7524 15.7923 74.5394 15.2001C74.3315 14.6026 74.0146 14.1272 73.5886 13.7739C73.1626 13.4206 72.6326 13.244 71.9988 13.244C71.3493 13.244 70.809 13.4206 70.3778 13.7739C69.9518 14.1272 69.6322 14.6026 69.4192 15.2001C69.2114 15.7923 69.1075 16.4548 69.1075 17.1873C69.1075 17.9147 69.2114 18.5745 69.4192 19.1668C69.6322 19.7591 69.9518 20.2319 70.3778 20.5852C70.809 20.9333 71.3493 21.1073 71.9988 21.1073ZM81.3654 7.17304V23.1335H78.5443V7.17304H81.3654ZM85.5184 7.17304V23.1335H82.6973V7.17304H85.5184ZM92.0717 23.3673C90.9027 23.3673 89.8896 23.1102 89.0324 22.5958C88.1751 22.0815 87.5101 21.3619 87.0373 20.4371C86.5697 19.5123 86.3359 18.4316 86.3359 17.1951C86.3359 15.9586 86.5697 14.8753 87.0373 13.9453C87.5101 13.0154 88.1751 12.2932 89.0324 11.7788C89.8896 11.2645 90.9027 11.0073 92.0717 11.0073C93.2407 11.0073 94.2538 11.2645 95.1111 11.7788C95.9683 12.2932 96.6307 13.0154 97.0983 13.9453C97.5711 14.8753 97.8075 15.9586 97.8075 17.1951C97.8075 18.4316 97.5711 19.5123 97.0983 20.4371C96.6307 21.3619 95.9683 22.0815 95.1111 22.5958C94.2538 23.1102 93.2407 23.3673 92.0717 23.3673ZM92.0873 21.1073C92.7211 21.1073 93.2511 20.9333 93.6771 20.5852C94.1031 20.2319 94.4201 19.7591 94.6279 19.1668C94.8409 18.5745 94.9474 17.9147 94.9474 17.1873C94.9474 16.4548 94.8409 15.7923 94.6279 15.2001C94.4201 14.6026 94.1031 14.1272 93.6771 13.7739C93.2511 13.4206 92.7211 13.244 92.0873 13.244C91.4379 13.244 90.8975 13.4206 90.4663 13.7739C90.0403 14.1272 89.7208 14.6026 89.5077 15.2001C89.2999 15.7923 89.196 16.4548 89.196 17.1873C89.196 17.9147 89.2999 18.5745 89.5077 19.1668C89.7208 19.7591 90.0403 20.2319 90.4663 20.5852C90.8975 20.9333 91.4379 21.1073 92.0873 21.1073Z" fill="url(#paint0_linear_7_10602)"/>
</g>
<path fill-rule="evenodd" clip-rule="evenodd" d="M43.9447 11.9832L43.9447 12.0451L53.0333 23.281V16.2714L43.9447 5.19012V5.19056L34.5096 16.1712V23.1171L43.9447 11.9832Z" fill="url(#paint1_linear_7_10602)"/>
<defs>
<filter id="filter0_d_7_10602" x="32.7408" y="7.17303" width="71.7176" height="33.7511" filterUnits="userSpaceOnUse" color-interpolation-filters="sRGB">
<feFlood flood-opacity="0" result="BackgroundImageFix"/>
<feColorMatrix in="SourceAlpha" type="matrix" values="0 0 0 0 0 0 0 0 0 0 0 0 0 0 0 0 0 0 127 0" result="hardAlpha"/>
<feOffset dy="6.65083"/>
<feGaussianBlur stdDeviation="3.32541"/>
<feComposite in2="hardAlpha" operator="out"/>
<feColorMatrix type="matrix" values="0 0 0 0 0 0 0 0 0 0 0 0 0 0 0 0 0 0 0.25 0"/>
<feBlend mode="normal" in2="BackgroundImageFix" result="effect1_dropShadow_7_10602"/>
<feBlend mode="normal" in="SourceGraphic" in2="effect1_dropShadow_7_10602" result="shape"/>
</filter>
<linearGradient id="paint0_linear_7_10602" x1="-17.4032" y1="15.4611" x2="145.74" y2="15.4611" gradientUnits="userSpaceOnUse">
<stop stop-color="#CEE1FF"/>
<stop offset="1" stop-color="#1967FE"/>
</linearGradient>
<linearGradient id="paint1_linear_7_10602" x1="17.1415" y1="14.0999" x2="91.5039" y2="16.8876" gradientUnits="userSpaceOnUse">
<stop stop-color="#CEE1FF"/>
<stop offset="1" stop-color="#1967FE"/>
</linearGradient>
</defs>
</svg>
