<svg width="370" height="63" viewBox="0 0 370 63" fill="none" xmlns="http://www.w3.org/2000/svg">
<path d="M137.511 62.3243V12.627H145.888V18.6039H146.382C146.821 17.7254 147.441 16.792 148.241 15.8037C149.041 14.7997 150.123 13.9448 151.488 13.2389C152.853 12.5172 154.594 12.1564 156.712 12.1564C159.504 12.1564 162.022 12.8702 164.265 14.2977C166.524 15.7096 168.313 17.8038 169.63 20.5805C170.964 23.3414 171.63 26.7299 171.63 30.7458C171.63 34.7147 170.979 38.0875 169.677 40.8641C168.375 43.6408 166.603 45.7586 164.359 47.2175C162.116 48.6764 159.575 49.4058 156.735 49.4058C154.665 49.4058 152.947 49.0607 151.582 48.3705C150.217 47.6802 149.119 46.8488 148.288 45.8762C147.472 44.8879 146.837 43.9545 146.382 43.076H146.029V62.3243H137.511ZM145.864 30.6988C145.864 33.0362 146.193 35.0834 146.852 36.8403C147.527 38.5973 148.492 39.97 149.747 40.9582C151.017 41.9309 152.555 42.4172 154.359 42.4172C156.241 42.4172 157.818 41.9152 159.088 40.9112C160.359 39.8915 161.316 38.5032 161.959 36.7462C162.618 34.9736 162.947 32.9577 162.947 30.6988C162.947 28.4555 162.626 26.4632 161.983 24.7219C161.34 22.9806 160.383 21.6159 159.112 20.6276C157.841 19.6393 156.257 19.1451 154.359 19.1451C152.539 19.1451 150.994 19.6236 149.723 20.5805C148.452 21.5374 147.488 22.8787 146.829 24.6043C146.186 26.3299 145.864 28.3614 145.864 30.6988ZM192.98 49.4764C189.451 49.4764 186.392 48.6999 183.803 47.1469C181.215 45.5938 179.207 43.4212 177.779 40.6288C176.368 37.8365 175.662 34.5735 175.662 30.84C175.662 27.1064 176.368 23.8356 177.779 21.0276C179.207 18.2196 181.215 16.039 183.803 14.486C186.392 12.933 189.451 12.1564 192.98 12.1564C196.51 12.1564 199.569 12.933 202.157 14.486C204.746 16.039 206.746 18.2196 208.158 21.0276C209.585 23.8356 210.299 27.1064 210.299 30.84C210.299 34.5735 209.585 37.8365 208.158 40.6288C206.746 43.4212 204.746 45.5938 202.157 47.1469C199.569 48.6999 196.51 49.4764 192.98 49.4764ZM193.027 42.6525C194.941 42.6525 196.541 42.127 197.828 41.0759C199.114 40.0092 200.071 38.5816 200.699 36.7933C201.342 35.0049 201.663 33.0126 201.663 30.8164C201.663 28.6045 201.342 26.6044 200.699 24.8161C200.071 23.012 199.114 21.5766 197.828 20.5099C196.541 19.4432 194.941 18.9098 193.027 18.9098C191.067 18.9098 189.435 19.4432 188.133 20.5099C186.847 21.5766 185.882 23.012 185.239 24.8161C184.611 26.6044 184.298 28.6045 184.298 30.8164C184.298 33.0126 184.611 35.0049 185.239 36.7933C185.882 38.5816 186.847 40.0092 188.133 41.0759C189.435 42.127 191.067 42.6525 193.027 42.6525ZM224.337 0.579228V48.7705H215.819V0.579228H224.337ZM239.904 0.579228V48.7705H231.386V0.579228H239.904ZM262.719 49.4764C259.19 49.4764 256.131 48.6999 253.542 47.1469C250.954 45.5938 248.946 43.4212 247.518 40.6288C246.106 37.8365 245.4 34.5735 245.4 30.84C245.4 27.1064 246.106 23.8356 247.518 21.0276C248.946 18.2196 250.954 16.039 253.542 14.486C256.131 12.933 259.19 12.1564 262.719 12.1564C266.249 12.1564 269.308 12.933 271.896 14.486C274.485 16.039 276.485 18.2196 277.897 21.0276C279.324 23.8356 280.038 27.1064 280.038 30.84C280.038 34.5735 279.324 37.8365 277.897 40.6288C276.485 43.4212 274.485 45.5938 271.896 47.1469C269.308 48.6999 266.249 49.4764 262.719 49.4764ZM262.766 42.6525C264.68 42.6525 266.28 42.127 267.567 41.0759C268.853 40.0092 269.81 38.5816 270.437 36.7933C271.081 35.0049 271.402 33.0126 271.402 30.8164C271.402 28.6045 271.081 26.6044 270.437 24.8161C269.81 23.012 268.853 21.5766 267.567 20.5099C266.28 19.4432 264.68 18.9098 262.766 18.9098C260.805 18.9098 259.174 19.4432 257.872 20.5099C256.586 21.5766 255.621 23.012 254.978 24.8161C254.35 26.6044 254.036 28.6045 254.036 30.8164C254.036 33.0126 254.35 35.0049 254.978 36.7933C255.621 38.5816 256.586 40.0092 257.872 41.0759C259.174 42.127 260.805 42.6525 262.766 42.6525Z" fill="url(#paint0_linear_22_32390)"/>
<path fill-rule="evenodd" clip-rule="evenodd" d="M106.673 20.1985L106.673 20.3662L131.271 50.776V31.8048L106.673 1.81348V1.81417L81.1367 31.5332L81.1367 50.3322L106.673 20.1985Z" fill="url(#paint1_linear_22_32390)"/>
<defs>
<linearGradient id="paint0_linear_22_32390" x1="23.2773" y1="38.2636" x2="365.625" y2="75.3567" gradientUnits="userSpaceOnUse">
<stop stop-color="#09CAFF"/>
<stop offset="1" stop-color="#19FE93"/>
</linearGradient>
<linearGradient id="paint1_linear_22_32390" x1="84.2701" y1="46.9403" x2="131.273" y2="47.392" gradientUnits="userSpaceOnUse">
<stop stop-color="#09CAFF"/>
<stop offset="1" stop-color="#19FE93"/>
</linearGradient>
</defs>
</svg>
