<svg width="118" height="39" viewBox="0 0 118 39" fill="none" xmlns="http://www.w3.org/2000/svg">
<circle cx="15.0089" cy="15.3574" r="14.9644" fill="url(#paint0_linear_1_6187)"/>
<path fill-rule="evenodd" clip-rule="evenodd" d="M25.8663 18.5224C25.9032 18.1584 25.9221 17.7891 25.9221 17.4154C25.9221 11.425 21.0659 6.56879 15.0754 6.56879C9.08497 6.56879 4.22876 11.425 4.22876 17.4154C4.22876 17.7894 4.24768 18.1589 4.28462 18.5231C4.83912 13.0526 9.45874 8.78337 15.0755 8.78337C20.692 8.78337 25.3115 13.0522 25.8663 18.5224Z" fill="#1F1F1F"/>
<rect x="14.6851" y="4.80194" width="0.602592" height="20.0864" fill="#1F1F1F"/>
<path d="M14.9774 2.17188L16.282 5.78743L14.9776 4.88354L13.6727 5.78743L14.9774 2.17188Z" fill="#1F1F1F"/>
<path d="M15.2772 18.4486L16.8841 20.859V23.8719L15.2772 21.4616V18.4486Z" fill="#1F1F1F"/>
<path d="M15.2772 21.8707L16.8841 24.2811V27.2941L15.2772 24.8837V21.8707Z" fill="#1F1F1F"/>
<path d="M14.6851 18.4486L13.0781 20.859V23.8719L14.6851 21.4616V18.4486Z" fill="#1F1F1F"/>
<path d="M14.6851 21.8707L13.0781 24.2811V27.2941L14.6851 24.8837V21.8707Z" fill="#1F1F1F"/>
<g filter="url(#filter0_d_1_6187)">
<path d="M52.761 24.8741V12.9038H55.4964V14.8988H55.6211C55.8393 14.2078 56.2134 13.6753 56.7433 13.3012C57.2784 12.922 57.8889 12.7323 58.5747 12.7323C58.7306 12.7323 58.9046 12.7401 59.0969 12.7557C59.2943 12.7661 59.458 12.7843 59.5878 12.8102V15.4054C59.4683 15.3638 59.2787 15.3275 59.0189 15.2963C58.7644 15.2599 58.5176 15.2417 58.2786 15.2417C57.7642 15.2417 57.3018 15.3534 56.8914 15.5768C56.4861 15.7951 56.1666 16.099 55.9328 16.4886C55.699 16.8783 55.5821 17.3277 55.5821 17.8369V24.8741H52.761ZM66.5133 12.9038V15.0859H59.6319V12.9038H66.5133ZM61.3308 10.0359H64.1519V21.2737C64.1519 21.653 64.2091 21.9439 64.3234 22.1465C64.4429 22.3439 64.5987 22.479 64.791 22.5518C64.9832 22.6245 65.1962 22.6609 65.43 22.6609C65.6066 22.6609 65.7677 22.6479 65.9132 22.6219C66.0639 22.5959 66.1782 22.5725 66.2561 22.5518L66.7315 24.7572C66.5808 24.8092 66.3652 24.8664 66.0846 24.9287C65.8093 24.991 65.4716 25.0274 65.0715 25.0378C64.3649 25.0586 63.7285 24.9521 63.1622 24.7183C62.5959 24.4793 62.1465 24.1104 61.814 23.6116C61.4866 23.1129 61.3256 22.4894 61.3308 21.7413V10.0359ZM72.4743 25.1079C71.2741 25.1079 70.2376 24.8586 69.3648 24.3598C68.4971 23.8558 67.8295 23.1441 67.3619 22.2245C66.8943 21.2997 66.6605 20.2112 66.6605 18.9591C66.6605 17.7278 66.8943 16.6471 67.3619 15.7171C67.8347 14.7819 68.4945 14.0546 69.3414 13.535C70.1883 13.0103 71.1832 12.7479 72.3262 12.7479C73.064 12.7479 73.7602 12.8674 74.4148 13.1064C75.0746 13.3402 75.6565 13.7039 76.1605 14.1974C76.6696 14.691 77.0697 15.3197 77.3606 16.0834C77.6516 16.8419 77.797 17.746 77.797 18.7954V19.6605H67.9854V17.7589H75.0928C75.0876 17.2186 74.9707 16.738 74.7421 16.3172C74.5135 15.8912 74.194 15.5561 73.7835 15.3119C73.3783 15.0677 72.9055 14.9456 72.3652 14.9456C71.7885 14.9456 71.2819 15.0859 70.8455 15.3664C70.4091 15.6418 70.0688 16.0055 69.8246 16.4575C69.5856 16.9043 69.4635 17.3953 69.4583 17.9304V19.5903C69.4583 20.2865 69.5856 20.884 69.8402 21.3828C70.0947 21.8764 70.4506 22.2556 70.9078 22.5206C71.365 22.7804 71.9002 22.9103 72.5132 22.9103C72.9237 22.9103 73.2952 22.8531 73.6277 22.7388C73.9602 22.6193 74.2485 22.4453 74.4927 22.2167C74.7369 21.9881 74.9213 21.7049 75.046 21.3672L77.6801 21.6633C77.5139 22.3595 77.197 22.9674 76.7294 23.487C76.267 24.0013 75.6747 24.4014 74.9525 24.6871C74.2303 24.9677 73.4043 25.1079 72.4743 25.1079ZM78.6145 24.8741V12.9038H81.311V14.9378H81.4513C81.7006 14.252 82.1137 13.7169 82.6904 13.3324C83.2671 12.9427 83.9555 12.7479 84.7556 12.7479C85.5661 12.7479 86.2493 12.9453 86.8052 13.3402C87.3663 13.7298 87.7612 14.2624 87.9898 14.9378H88.1145C88.3794 14.2728 88.8262 13.7428 89.4549 13.348C90.0887 12.9479 90.8395 12.7479 91.7071 12.7479C92.8086 12.7479 93.7074 13.096 94.4036 13.7922C95.0998 14.4884 95.4479 15.5041 95.4479 16.8393V24.8741H92.6189V17.2758C92.6189 16.5328 92.4215 15.9899 92.0267 15.647C91.6318 15.2989 91.1486 15.1248 90.5771 15.1248C89.8965 15.1248 89.364 15.3378 88.9795 15.7639C88.6002 16.1847 88.4106 16.7328 88.4106 17.4082V24.8741H85.644V17.1589C85.644 16.5406 85.457 16.047 85.0829 15.6782C84.714 15.3093 84.2308 15.1248 83.6334 15.1248C83.2281 15.1248 82.8592 15.2287 82.5267 15.4366C82.1942 15.6392 81.9292 15.9275 81.7318 16.3016C81.5344 16.6705 81.4357 17.1017 81.4357 17.5953V24.8741H78.6145ZM96.7408 24.8741V12.9038H99.5619V24.8741H96.7408ZM98.1591 11.2048C97.7123 11.2048 97.3278 11.0568 97.0057 10.7606C96.6836 10.4593 96.5225 10.0982 96.5225 9.67738C96.5225 9.25135 96.6836 8.89026 97.0057 8.59412C97.3278 8.29278 97.7123 8.14211 98.1591 8.14211C98.6111 8.14211 98.9956 8.29278 99.3125 8.59412C99.6346 8.89026 99.7957 9.25135 99.7957 9.67738C99.7957 10.0982 99.6346 10.4593 99.3125 10.7606C98.9956 11.0568 98.6111 11.2048 98.1591 11.2048ZM110.355 16.0678L107.783 16.3484C107.71 16.0886 107.583 15.8444 107.401 15.6158C107.224 15.3872 106.985 15.2028 106.684 15.0625C106.383 14.9222 106.014 14.8521 105.577 14.8521C104.99 14.8521 104.497 14.9794 104.097 15.2339C103.702 15.4885 103.507 15.8184 103.512 16.2237C103.507 16.5718 103.634 16.8549 103.894 17.0731C104.159 17.2913 104.596 17.4706 105.203 17.6109L107.245 18.0473C108.378 18.2915 109.219 18.6785 109.77 19.2085C110.326 19.7384 110.607 20.432 110.612 21.2893C110.607 22.0426 110.386 22.7076 109.949 23.2843C109.518 23.8558 108.918 24.3026 108.149 24.6248C107.38 24.9469 106.497 25.1079 105.5 25.1079C104.034 25.1079 102.855 24.8014 101.961 24.1883C101.068 23.5701 100.535 22.7102 100.364 21.6088L103.115 21.3438C103.24 21.8841 103.504 22.292 103.91 22.5674C104.315 22.8427 104.842 22.9804 105.492 22.9804C106.162 22.9804 106.7 22.8427 107.105 22.5674C107.515 22.292 107.721 21.9517 107.721 21.5464C107.721 21.2035 107.588 20.9204 107.323 20.697C107.063 20.4736 106.658 20.3021 106.107 20.1826L104.066 19.754C102.917 19.515 102.068 19.1124 101.517 18.5461C100.966 17.9746 100.694 17.2524 100.699 16.3795C100.694 15.6418 100.894 15.0027 101.299 14.4624C101.709 13.9169 102.278 13.4961 103.006 13.1999C103.738 12.8986 104.583 12.7479 105.539 12.7479C106.941 12.7479 108.045 13.0466 108.851 13.6441C109.661 14.2416 110.162 15.0495 110.355 16.0678Z" fill="url(#paint1_linear_1_6187)"/>
</g>
<path fill-rule="evenodd" clip-rule="evenodd" d="M42.2613 13.5431L42.2613 13.6049L51.35 24.8408V17.8313L42.2613 6.75V6.75043L32.8263 17.7311V24.677L42.2613 13.5431Z" fill="url(#paint2_linear_1_6187)"/>
<defs>
<filter id="filter0_d_1_6187" x="30.8869" y="8.14209" width="86.3759" height="30.2675" filterUnits="userSpaceOnUse" color-interpolation-filters="sRGB">
<feFlood flood-opacity="0" result="BackgroundImageFix"/>
<feColorMatrix in="SourceAlpha" type="matrix" values="0 0 0 0 0 0 0 0 0 0 0 0 0 0 0 0 0 0 127 0" result="hardAlpha"/>
<feOffset dy="6.65083"/>
<feGaussianBlur stdDeviation="3.32541"/>
<feComposite in2="hardAlpha" operator="out"/>
<feColorMatrix type="matrix" values="0 0 0 0 0 0 0 0 0 0 0 0 0 0 0 0 0 0 0.25 0"/>
<feBlend mode="normal" in2="BackgroundImageFix" result="effect1_dropShadow_1_6187"/>
<feBlend mode="normal" in="SourceGraphic" in2="effect1_dropShadow_1_6187" result="shape"/>
</filter>
<linearGradient id="paint0_linear_1_6187" x1="1.9151" y1="27.9772" x2="29.9747" y2="28.2405" gradientUnits="userSpaceOnUse">
<stop stop-color="#09CAFF"/>
<stop offset="1" stop-color="#19FE93"/>
</linearGradient>
<linearGradient id="paint1_linear_1_6187" x1="41.6875" y1="20.6207" x2="90.9401" y2="42.1499" gradientUnits="userSpaceOnUse">
<stop stop-color="#09CAFF"/>
<stop offset="1" stop-color="#19FE93"/>
</linearGradient>
<linearGradient id="paint2_linear_1_6187" x1="33.984" y1="23.4236" x2="51.3508" y2="23.5905" gradientUnits="userSpaceOnUse">
<stop stop-color="#09CAFF"/>
<stop offset="1" stop-color="#19FE93"/>
</linearGradient>
</defs>
</svg>
