<svg width="315" height="54" viewBox="0 0 315 54" fill="none" xmlns="http://www.w3.org/2000/svg">
<path fill-rule="evenodd" clip-rule="evenodd" d="M56.1276 22.5515L56.1276 22.7193L80.7258 53.1291V34.1578L56.1276 4.1665V4.16719L30.5918 33.8862L30.5918 52.6852L56.1276 22.5515Z" fill="url(#paint0_linear_22_32357)"/>
<path d="M86.5207 50.7476V14.6041H94.78V20.628H95.1565C95.8154 18.5416 96.9448 16.9337 98.5449 15.8042C100.161 14.659 102.004 14.0864 104.075 14.0864C104.545 14.0864 105.071 14.1099 105.651 14.157C106.247 14.1884 106.742 14.2433 107.134 14.3217V22.1575C106.773 22.032 106.2 21.9222 105.416 21.8281C104.647 21.7183 103.902 21.6634 103.181 21.6634C101.627 21.6634 100.231 22.0006 98.992 22.6752C97.7684 23.3341 96.8037 24.2518 96.0977 25.4283C95.3918 26.6049 95.0388 27.9618 95.0388 29.4992V50.7476H86.5207ZM131.072 14.6041V21.1927H110.294V14.6041H131.072ZM115.424 5.94473H123.942V39.8763C123.942 41.0215 124.115 41.8999 124.46 42.5117C124.821 43.1079 125.291 43.5157 125.872 43.7354C126.452 43.955 127.095 44.0648 127.801 44.0648C128.335 44.0648 128.821 44.0256 129.26 43.9471C129.715 43.8687 130.06 43.7981 130.296 43.7354L131.731 50.3946C131.276 50.5515 130.625 50.724 129.778 50.9123C128.947 51.1005 127.927 51.2103 126.719 51.2417C124.586 51.3045 122.664 50.9829 120.954 50.2769C119.244 49.5553 117.887 48.4415 116.883 46.9356C115.895 45.4296 115.408 43.5471 115.424 41.2881V5.94473ZM152.099 51.4535C148.475 51.4535 145.345 50.7005 142.71 49.1945C140.09 47.6729 138.074 45.5237 136.662 42.7471C135.251 39.9547 134.545 36.6682 134.545 32.8876C134.545 29.1697 135.251 25.9068 136.662 23.0988C138.09 20.275 140.082 18.0788 142.639 16.5101C145.196 14.9257 148.2 14.1335 151.652 14.1335C153.879 14.1335 155.981 14.4943 157.958 15.2159C159.95 15.9218 161.707 17.0199 163.229 18.5102C164.766 20.0005 165.974 21.8987 166.853 24.2047C167.731 26.495 168.17 29.2246 168.17 32.3935V35.0054H138.545V29.2638H160.005C159.989 27.6324 159.636 26.1813 158.946 24.9106C158.256 23.6243 157.291 22.6124 156.052 21.8751C154.828 21.1378 153.401 20.7692 151.769 20.7692C150.028 20.7692 148.498 21.1928 147.181 22.0399C145.863 22.8713 144.836 23.9694 144.098 25.3342C143.377 26.6833 143.008 28.1657 142.992 29.7815V34.7936C142.992 36.8957 143.377 38.6997 144.145 40.2057C144.914 41.696 145.989 42.8412 147.369 43.6412C148.749 44.4256 150.365 44.8178 152.216 44.8178C153.456 44.8178 154.577 44.6452 155.581 44.3001C156.585 43.9393 157.456 43.4138 158.193 42.7235C158.931 42.0333 159.487 41.1783 159.864 40.1587L167.817 41.0528C167.315 43.1549 166.358 44.9903 164.947 46.5591C163.55 48.1121 161.762 49.32 159.582 50.1828C157.401 51.0299 154.907 51.4535 152.099 51.4535ZM173.666 50.7476V14.6041H181.808V20.7457H182.232C182.985 18.6749 184.232 17.0592 185.973 15.8983C187.714 14.7218 189.793 14.1335 192.209 14.1335C194.656 14.1335 196.719 14.7296 198.397 15.9218C200.092 17.0984 201.284 18.7063 201.974 20.7457H202.351C203.151 18.7377 204.5 17.1376 206.398 15.9454C208.312 14.7374 210.579 14.1335 213.198 14.1335C216.524 14.1335 219.238 15.1845 221.34 17.2866C223.442 19.3887 224.493 22.4556 224.493 26.4872V50.7476H215.951V27.8049C215.951 25.5617 215.355 23.9223 214.163 22.887C212.971 21.8359 211.512 21.3104 209.786 21.3104C207.731 21.3104 206.123 21.9536 204.963 23.2399C203.817 24.5106 203.245 26.1656 203.245 28.205V50.7476H194.891V27.452C194.891 25.5852 194.327 24.0949 193.197 22.9811C192.083 21.8673 190.624 21.3104 188.82 21.3104C187.597 21.3104 186.483 21.6241 185.479 22.2516C184.475 22.8634 183.675 23.7341 183.079 24.8636C182.483 25.9774 182.185 27.2794 182.185 28.7697V50.7476H173.666ZM231.425 50.7476V14.6041H239.943V50.7476H231.425ZM235.707 9.47436C234.358 9.47436 233.197 9.02728 232.225 8.1331C231.252 7.22324 230.766 6.13297 230.766 4.86231C230.766 3.57595 231.252 2.48568 232.225 1.59151C233.197 0.68165 234.358 0.22672 235.707 0.22672C237.072 0.22672 238.233 0.68165 239.19 1.59151C240.162 2.48568 240.649 3.57595 240.649 4.86231C240.649 6.13297 240.162 7.22324 239.19 8.1331C238.233 9.02728 237.072 9.47436 235.707 9.47436ZM275.559 24.1576L267.793 25.0048C267.574 24.2204 267.189 23.4831 266.64 22.7929C266.107 22.1026 265.385 21.5457 264.475 21.1222C263.566 20.6986 262.452 20.4868 261.134 20.4868C259.361 20.4868 257.871 20.8712 256.663 21.6398C255.471 22.4085 254.883 23.4047 254.898 24.6283C254.883 25.6793 255.267 26.5343 256.051 27.1931C256.851 27.852 258.169 28.3932 260.005 28.8168L266.17 30.1345C269.59 30.8718 272.131 32.0405 273.794 33.6406C275.472 35.2407 276.319 37.3349 276.335 39.9233C276.319 42.198 275.653 44.206 274.335 45.9473C273.033 47.6729 271.221 49.022 268.899 49.9946C266.578 50.9672 263.911 51.4535 260.899 51.4535C256.475 51.4535 252.914 50.5279 250.216 48.6768C247.518 46.8101 245.91 44.2138 245.392 40.8881L253.698 40.0881C254.075 41.7195 254.875 42.951 256.098 43.7824C257.322 44.6138 258.914 45.0296 260.875 45.0296C262.899 45.0296 264.523 44.6138 265.746 43.7824C266.985 42.951 267.605 41.9235 267.605 40.6999C267.605 39.6645 267.205 38.8095 266.405 38.135C265.621 37.4604 264.397 36.9428 262.734 36.582L256.569 35.2878C253.102 34.5661 250.537 33.3504 248.874 31.6405C247.212 29.9149 246.388 27.7343 246.404 25.0989C246.388 22.8713 246.992 20.9418 248.216 19.3103C249.455 17.6631 251.173 16.3924 253.369 15.4983C255.581 14.5884 258.13 14.1335 261.016 14.1335C265.252 14.1335 268.586 15.0355 271.017 16.8395C273.464 18.6436 274.978 21.0829 275.559 24.1576Z" fill="url(#paint1_linear_22_32357)"/>
<defs>
<linearGradient id="paint0_linear_22_32357" x1="33.7252" y1="49.2933" x2="80.728" y2="49.745" gradientUnits="userSpaceOnUse">
<stop stop-color="#09CAFF"/>
<stop offset="1" stop-color="#19FE93"/>
</linearGradient>
<linearGradient id="paint1_linear_22_32357" x1="19.771" y1="40.2406" x2="312.331" y2="67.2433" gradientUnits="userSpaceOnUse">
<stop stop-color="#09CAFF"/>
<stop offset="1" stop-color="#19FE93"/>
</linearGradient>
</defs>
</svg>
