<svg width="80" height="25" viewBox="0 0 80 25" fill="none" xmlns="http://www.w3.org/2000/svg">
<path fill-rule="evenodd" clip-rule="evenodd" d="M12.5242 9.017L12.5242 9.0993L24.5885 24.014V14.7094L12.5242 0V0.000309959L4.03801e-07 14.5762L0 23.7962L12.5242 9.017Z" fill="url(#paint0_linear_22_32257)"/>
<path d="M26.8789 24.0384V6.65276H29.6329V10.3182H29.7018C31.1132 7.49346 33.0754 6.14834 36.2425 6.24922V9.27573C31.5263 9.27573 29.805 11.8651 29.805 16.304V24.0384H26.8789Z" fill="url(#paint1_linear_22_32257)"/>
<path d="M42.8524 1.44043V6.65276H46.3982V9.17485H42.8524V19.9694C42.8524 21.3145 43.2311 21.5163 45.0556 21.5163H46.3982V24.0384H44.1606C41.1312 24.0384 39.9263 23.4331 39.9263 20.2384V9.17485H36.8969V6.65276H39.9263V1.44043H42.8524Z" fill="url(#paint2_linear_22_32257)"/>
<path d="M63.0059 6.65276V24.0384H60.2519V21.2809H60.1831C58.9438 23.4331 56.9815 24.4419 54.3996 24.4419C49.7178 24.4419 48.272 21.8189 48.272 18.0862V6.65276H51.1981V18.4225C51.1981 20.5747 52.5751 21.9198 54.8127 21.9198C58.3585 21.9198 60.0798 19.5995 60.0798 16.4721V6.65276H63.0059Z" fill="url(#paint3_linear_22_32257)"/>
<path d="M64.8877 18.557H67.8139C67.9171 21.1128 70.2236 21.9198 72.599 21.9198C74.4235 21.9198 76.9021 21.5163 76.9021 19.3305C76.9021 14.858 65.2664 17.8845 65.2664 11.1925C65.2664 7.69522 68.7778 6.24922 71.9105 6.24922C75.9038 6.24922 78.9332 7.45983 79.2086 11.6969H76.2824C76.1103 9.4775 74.0448 8.77131 72.1514 8.77131C70.3958 8.77131 68.3647 9.2421 68.3647 10.9908C68.3647 13.0084 71.4629 13.412 74.1825 14.0173C77.1086 14.6562 80.0004 15.6314 80.0004 18.9606C80.0004 23.1304 76.0415 24.4419 72.4268 24.4419C68.4335 24.4419 65.0599 22.8614 64.8877 18.557Z" fill="url(#paint4_linear_22_32257)"/>
<defs>
<linearGradient id="paint0_linear_22_32257" x1="1.53678" y1="22.1327" x2="24.5896" y2="22.3542" gradientUnits="userSpaceOnUse">
<stop stop-color="#09CAFF"/>
<stop offset="1" stop-color="#19FE93"/>
</linearGradient>
<linearGradient id="paint1_linear_22_32257" x1="30.199" y1="22.64" x2="79.9839" y2="23.7191" gradientUnits="userSpaceOnUse">
<stop stop-color="#09CAFF"/>
<stop offset="1" stop-color="#19FE93"/>
</linearGradient>
<linearGradient id="paint2_linear_22_32257" x1="30.199" y1="22.64" x2="79.9839" y2="23.7191" gradientUnits="userSpaceOnUse">
<stop stop-color="#09CAFF"/>
<stop offset="1" stop-color="#19FE93"/>
</linearGradient>
<linearGradient id="paint3_linear_22_32257" x1="30.199" y1="22.64" x2="79.9839" y2="23.7191" gradientUnits="userSpaceOnUse">
<stop stop-color="#09CAFF"/>
<stop offset="1" stop-color="#19FE93"/>
</linearGradient>
<linearGradient id="paint4_linear_22_32257" x1="30.199" y1="22.64" x2="79.9839" y2="23.7191" gradientUnits="userSpaceOnUse">
<stop stop-color="#09CAFF"/>
<stop offset="1" stop-color="#19FE93"/>
</linearGradient>
</defs>
</svg>
