<svg width="315" height="51" viewBox="0 0 315 51" fill="none" xmlns="http://www.w3.org/2000/svg">
<path d="M113.025 12.6178V19.2064H92.2468V12.6178H113.025ZM97.3765 3.9584H105.895V37.89C105.895 39.0351 106.067 39.9136 106.412 40.5254C106.773 41.1215 107.244 41.5294 107.824 41.749C108.405 41.9686 109.048 42.0785 109.754 42.0785C110.287 42.0785 110.773 42.0392 111.213 41.9608C111.668 41.8824 112.013 41.8118 112.248 41.749L113.683 48.4083C113.228 48.5651 112.577 48.7377 111.73 48.9259C110.899 49.1142 109.879 49.224 108.671 49.2554C106.538 49.3181 104.616 48.9965 102.906 48.2906C101.196 47.569 99.8394 46.4552 98.8354 44.9492C97.8471 43.4432 97.3608 41.5608 97.3765 39.3018V3.9584ZM127.733 27.5834V48.7612H119.215V0.56995H127.545V18.7593H127.968C128.815 16.72 130.125 15.112 131.898 13.9355C133.686 12.7433 135.961 12.1472 138.722 12.1472C141.232 12.1472 143.42 12.6727 145.287 13.7237C147.154 14.7748 148.597 16.3121 149.617 18.3358C150.652 20.3594 151.17 22.8302 151.17 25.748V48.7612H142.652V27.0657C142.652 24.6342 142.024 22.7439 140.769 21.3948C139.53 20.03 137.789 19.3476 135.545 19.3476C134.039 19.3476 132.69 19.677 131.498 20.3359C130.321 20.9791 129.396 21.9125 128.721 23.1361C128.062 24.3597 127.733 25.8421 127.733 27.5834ZM174.144 49.4672C170.52 49.4672 167.39 48.7142 164.755 47.2082C162.135 45.6865 160.119 43.5374 158.707 40.7607C157.295 37.9684 156.589 34.6819 156.589 30.9013C156.589 27.1834 157.295 23.9204 158.707 21.1124C160.135 18.2887 162.127 16.0925 164.684 14.5238C167.241 12.9394 170.245 12.1472 173.696 12.1472C175.924 12.1472 178.026 12.508 180.003 13.2296C181.995 13.9355 183.752 15.0336 185.274 16.5239C186.811 18.0142 188.019 19.9123 188.897 22.2184C189.776 24.5087 190.215 27.2383 190.215 30.4071V33.0191H160.59V27.2775H182.05C182.034 25.646 181.681 24.195 180.991 22.9243C180.301 21.6379 179.336 20.6261 178.097 19.8888C176.873 19.1515 175.446 18.7829 173.814 18.7829C172.073 18.7829 170.543 19.2064 169.226 20.0535C167.908 20.885 166.88 21.9831 166.143 23.3479C165.421 24.697 165.053 26.1794 165.037 27.7952V32.8073C165.037 34.9094 165.421 36.7134 166.19 38.2194C166.959 39.7097 168.033 40.8548 169.414 41.6549C170.794 42.4393 172.41 42.8314 174.261 42.8314C175.5 42.8314 176.622 42.6589 177.626 42.3138C178.63 41.953 179.501 41.4274 180.238 40.7372C180.975 40.047 181.532 39.192 181.909 38.1723L189.862 39.0665C189.36 41.1686 188.403 43.004 186.991 44.5727C185.595 46.1258 183.807 47.3337 181.626 48.1965C179.446 49.0436 176.952 49.4672 174.144 49.4672ZM204.229 27.5834V48.7612H195.711V12.6178H203.853V18.7593H204.276C205.108 16.7357 206.433 15.1277 208.253 13.9355C210.089 12.7433 212.355 12.1472 215.054 12.1472C217.548 12.1472 219.721 12.6805 221.572 13.7473C223.438 14.814 224.882 16.3592 225.901 18.3828C226.937 20.4065 227.447 22.8616 227.431 25.748V48.7612H218.913V27.0657C218.913 24.6499 218.285 22.7596 217.03 21.3948C215.791 20.03 214.073 19.3476 211.877 19.3476C210.387 19.3476 209.061 19.677 207.9 20.3359C206.755 20.9791 205.853 21.9125 205.194 23.1361C204.551 24.3597 204.229 25.8421 204.229 27.5834ZM244.781 49.4907C242.49 49.4907 240.427 49.0828 238.592 48.2671C236.772 47.4357 235.329 46.212 234.262 44.5963C233.211 42.9805 232.686 40.9882 232.686 38.6194C232.686 36.5801 233.062 34.8937 233.815 33.5603C234.568 32.2269 235.596 31.1601 236.898 30.3601C238.2 29.56 239.667 28.9561 241.298 28.5482C242.945 28.1246 244.647 27.8187 246.404 27.6305C248.522 27.4109 250.24 27.2148 251.558 27.0422C252.875 26.854 253.832 26.5716 254.428 26.1951C255.04 25.8029 255.346 25.199 255.346 24.3832V24.242C255.346 22.4694 254.821 21.0967 253.769 20.1241C252.718 19.1515 251.205 18.6652 249.228 18.6652C247.142 18.6652 245.487 19.1201 244.263 20.03C243.055 20.9399 242.239 22.0144 241.816 23.2537L233.862 22.1243C234.49 19.928 235.525 18.0926 236.968 16.618C238.412 15.1277 240.176 14.0139 242.263 13.2766C244.349 12.5236 246.655 12.1472 249.181 12.1472C250.922 12.1472 252.656 12.3511 254.381 12.759C256.107 13.1668 257.683 13.8414 259.111 14.7826C260.539 15.7082 261.684 16.971 262.547 18.5711C263.425 20.1712 263.864 22.1713 263.864 24.5715V48.7612H255.675V43.7962H255.393C254.875 44.8002 254.146 45.7414 253.205 46.6199C252.279 47.4827 251.11 48.1808 249.699 48.7142C248.302 49.2318 246.663 49.4907 244.781 49.4907ZM246.993 43.2315C248.703 43.2315 250.185 42.8942 251.44 42.2196C252.695 41.5294 253.66 40.6195 254.334 39.4901C255.024 38.3606 255.37 37.1291 255.37 35.7957V31.5366C255.103 31.7562 254.648 31.9602 254.005 32.1484C253.377 32.3367 252.671 32.5014 251.887 32.6426C251.103 32.7838 250.326 32.9092 249.557 33.0191C248.789 33.1289 248.122 33.223 247.557 33.3014C246.287 33.474 245.149 33.7564 244.145 34.1485C243.141 34.5407 242.349 35.0898 241.769 35.7957C241.188 36.4859 240.898 37.3801 240.898 38.4782C240.898 40.047 241.471 41.2313 242.616 42.0314C243.761 42.8314 245.22 43.2315 246.993 43.2315Z" fill="url(#paint0_linear_22_32404)"/>
<path fill-rule="evenodd" clip-rule="evenodd" d="M65.0231 20.1892L65.0231 20.357L89.6213 50.7668V31.7955L65.0231 1.8042V1.80489L39.4873 31.5239L39.4873 50.3229L65.0231 20.1892Z" fill="url(#paint1_linear_22_32404)"/>
<defs>
<linearGradient id="paint0_linear_22_32404" x1="19.6665" y1="38.2543" x2="312.227" y2="65.257" gradientUnits="userSpaceOnUse">
<stop stop-color="#09CAFF"/>
<stop offset="1" stop-color="#19FE93"/>
</linearGradient>
<linearGradient id="paint1_linear_22_32404" x1="42.6207" y1="46.931" x2="89.6235" y2="47.3827" gradientUnits="userSpaceOnUse">
<stop stop-color="#09CAFF"/>
<stop offset="1" stop-color="#19FE93"/>
</linearGradient>
</defs>
</svg>
