<svg width="1353" height="325" viewBox="0 0 1353 325" fill="none" xmlns="http://www.w3.org/2000/svg">
<g filter="url(#filter0_d_2_9415)">
<circle cx="1190.29" cy="154.615" r="116.615" fill="#0D2D47"/>
<mask id="mask0_2_9415" style="mask-type:alpha" maskUnits="userSpaceOnUse" x="1109" y="73" width="167" height="168">
<rect x="1109.37" y="73.7034" width="166.593" height="166.593" fill="#D9D9D9"/>
</mask>
<g mask="url(#mask0_2_9415)">
<path d="M1144.08 219.472C1140.26 219.472 1136.99 218.113 1134.27 215.394C1131.55 212.675 1130.19 209.407 1130.19 205.589V108.41C1130.19 104.592 1131.55 101.324 1134.27 98.6053C1136.99 95.8866 1140.26 94.5272 1144.08 94.5272H1173.23C1174.73 90.3624 1177.25 87.0074 1180.78 84.4622C1184.31 81.9171 1188.27 80.6445 1192.67 80.6445C1197.06 80.6445 1201.03 81.9171 1204.55 84.4622C1208.08 87.0074 1210.6 90.3624 1212.1 94.5272H1241.26C1245.07 94.5272 1248.34 95.8866 1251.06 98.6053C1253.78 101.324 1255.14 104.592 1255.14 108.41V205.589C1255.14 209.407 1253.78 212.675 1251.06 215.394C1248.34 218.113 1245.07 219.472 1241.26 219.472H1144.08ZM1144.08 205.589H1241.26V108.41H1144.08V205.589ZM1157.96 191.707H1206.55V177.824H1157.96V191.707ZM1157.96 163.941H1227.37V150.058H1157.96V163.941ZM1157.96 136.176H1227.37V122.293H1157.96V136.176ZM1192.67 103.204C1194.17 103.204 1195.41 102.712 1196.4 101.729C1197.38 100.746 1197.87 99.5019 1197.87 97.9979C1197.87 96.494 1197.38 95.2503 1196.4 94.2669C1195.41 93.2836 1194.17 92.7919 1192.67 92.7919C1191.16 92.7919 1189.92 93.2836 1188.94 94.2669C1187.95 95.2503 1187.46 96.494 1187.46 97.9979C1187.46 99.5019 1187.95 100.746 1188.94 101.729C1189.92 102.712 1191.16 103.204 1192.67 103.204Z" fill="#3FACFF"/>
</g>
</g>
<g filter="url(#filter1_d_2_9415)">
<circle cx="1019" cy="154.615" r="116.612" fill="#0A0222"/>
<mask id="mask1_2_9415" style="mask-type:alpha" maskUnits="userSpaceOnUse" x="926" y="62" width="186" height="186">
<rect x="926.516" y="62.1336" width="184.971" height="184.971" fill="#D9D9D9"/>
</mask>
<g mask="url(#mask1_2_9415)">
<path d="M1019 131.691C1030.43 131.691 1041.93 129.989 1053.49 126.585C1065.05 123.181 1071.54 119.745 1072.95 116.277C1071.54 112.551 1065.08 109.019 1053.59 105.679C1042.09 102.339 1030.56 100.67 1019 100.67C1007.31 100.67 995.848 102.307 984.609 105.583C973.369 108.858 966.85 112.423 965.052 116.277C966.85 119.745 973.369 123.181 984.609 126.585C995.848 129.989 1007.31 131.691 1019 131.691ZM1061.39 223.984H1069.1V192.385L1082.97 206.257L1088.37 200.862L1065.24 177.741L1042.12 200.862L1047.52 206.257L1061.39 192.385V223.984ZM1065.24 239.398C1054.58 239.398 1045.5 235.641 1037.98 228.126C1030.47 220.612 1026.71 211.524 1026.71 200.862C1026.71 190.201 1030.47 181.113 1037.98 173.598C1045.5 166.084 1054.58 162.327 1065.24 162.327C1075.91 162.327 1084.99 166.084 1092.51 173.598C1100.02 181.113 1103.78 190.201 1103.78 200.862C1103.78 211.524 1100.02 220.612 1092.51 228.126C1084.99 235.641 1075.91 239.398 1065.24 239.398ZM1011.87 208.377C1012.26 211.203 1012.84 213.9 1013.61 216.469C1014.38 219.038 1015.34 221.543 1016.5 223.984C1007.12 223.855 998.385 222.956 990.293 221.286C982.2 219.616 975.135 217.401 969.098 214.639C963.061 211.877 958.308 208.666 954.84 205.005C951.372 201.344 949.637 197.394 949.637 193.155V116.084C949.637 107.606 956.413 100.348 969.965 94.3112C983.517 88.2739 999.862 85.2553 1019 85.2553C1038.14 85.2553 1054.49 88.2739 1068.04 94.3112C1081.59 100.348 1088.37 107.606 1088.37 116.084V152.115C1085.93 150.959 1083.42 149.995 1080.85 149.225C1078.28 148.454 1075.65 147.876 1072.95 147.49V135.544C1066.27 139.27 1058.31 142.095 1049.06 144.022C1039.81 145.949 1029.79 146.912 1019 146.912C1008.08 146.912 998 145.949 988.751 144.022C979.503 142.095 971.603 139.27 965.052 135.544V155.005C971.603 161.042 979.984 165.056 990.196 167.047C1000.41 169.038 1010.01 170.034 1019 170.034H1021.12C1019.45 172.346 1018.01 174.787 1016.79 177.356C1015.57 179.925 1014.51 182.622 1013.61 185.448C1003.84 184.934 994.788 183.746 986.439 181.884C978.09 180.021 970.961 177.42 965.052 174.08V193.155C965.951 194.825 967.878 196.527 970.832 198.261C973.787 199.995 977.383 201.537 981.622 202.886C985.861 204.234 990.582 205.39 995.784 206.354C1000.99 207.317 1006.35 207.992 1011.87 208.377Z" fill="#3510A6"/>
</g>
</g>
<g filter="url(#filter2_d_2_9415)">
<circle cx="847.715" cy="154.615" r="116.612" fill="#2D4A01"/>
<g clip-path="url(#clip0_2_9415)">
<path d="M830.253 218.746C825.719 221.371 824.856 221.695 820.588 223.199C819.556 223.553 817.993 224.179 821.185 226.008L842.557 238.82C844.591 240.022 846.958 240.649 849.273 240.649L849.287 240.663C851.646 240.663 853.961 240.029 856.011 238.835L920.015 201.414C924.165 198.952 926.731 194.426 926.731 189.575V114.763C926.731 109.883 924.173 105.357 920.015 102.939L856.011 65.4739C851.986 63.1664 846.619 63.1664 842.564 65.4739L778.634 102.902C774.483 105.327 771.918 109.883 771.918 114.727V189.545C771.918 194.426 774.476 198.952 778.634 201.37L795.405 211.168C803.522 215.237 806.426 215.237 810.127 215.237C822.151 215.237 829.081 207.865 829.081 195.016V121.125C829.081 120.071 828.218 119.268 827.208 119.268H819.106C818.059 119.268 817.234 120.071 817.234 121.125V194.979C817.234 200.699 811.41 206.354 801.885 201.547L784.347 191.3C783.735 190.99 783.344 190.283 783.344 189.575V114.763C783.344 114.041 783.735 113.333 784.347 112.979L848.277 75.5514H850.246L914.213 112.942C914.832 113.326 915.216 113.989 915.216 114.727V189.575C915.216 190.275 914.84 190.976 914.25 191.322L850.246 228.75H848.277L831.852 218.894L830.253 218.746Z" fill="#8CC03E"/>
<path d="M830.253 218.747C825.719 221.371 824.856 221.696 820.588 223.2C819.556 223.554 817.993 224.18 821.185 226.008L842.557 238.821C844.591 240.023 846.958 240.649 849.273 240.649L849.287 240.664C849.302 240.664 849.31 240.664 849.324 240.664V228.758H848.277L831.852 218.894L830.253 218.747ZM849.302 63.7349C846.95 63.7349 844.591 64.3099 842.564 65.4673L778.634 102.903C774.483 105.328 771.918 109.884 771.918 114.727V189.546C771.918 194.427 774.476 198.953 778.634 201.371L795.405 211.169C803.522 215.238 806.426 215.238 810.127 215.238C822.151 215.238 829.081 207.866 829.081 195.016V121.126C829.081 120.072 828.218 119.269 827.208 119.269H819.106C818.059 119.269 817.234 120.072 817.234 121.126V194.98C817.234 199.189 814.086 203.362 808.631 203.362C806.67 203.362 804.406 202.823 801.885 201.548L784.347 191.301C783.735 190.991 783.344 190.284 783.344 189.576V114.764C783.344 114.042 783.735 113.334 784.347 112.98L848.277 75.5523H849.324V63.7349H849.302Z" fill="#7AA736"/>
<path d="M869.037 177.781C852.089 177.781 848.381 173.454 847.142 164.924C847.002 164.01 846.235 163.347 845.307 163.347H837.028C835.981 163.347 835.192 164.18 835.192 165.204C835.192 176.13 841.053 189.149 869.081 189.149C889.31 189.105 900.966 181.003 900.966 166.885L900.943 166.893C900.943 152.886 891.588 149.17 871.934 146.524C852.045 143.862 850.039 142.491 850.039 137.78C850.039 133.888 851.742 128.691 866.472 128.691C879.601 128.691 884.46 131.573 886.465 140.552C886.634 141.4 887.408 142.027 888.271 142.027H896.587L897.943 141.43L898.422 139.992C897.147 124.511 886.988 117.316 866.479 117.316C848.226 117.316 837.337 125.115 837.337 138.208C837.337 152.392 848.182 156.321 865.683 158.068C886.649 160.147 888.271 163.273 888.271 167.453C888.271 174.692 882.521 177.781 869.037 177.781Z" fill="#8CC03E"/>
<path d="M845.307 163.345H837.028C835.981 163.345 835.192 164.178 835.192 165.203C835.192 175.996 840.913 188.838 868.079 189.14V177.772C851.949 177.61 848.359 173.283 847.142 164.916C847.002 164.001 846.235 163.345 845.307 163.345ZM866.479 117.322C848.226 117.322 837.337 125.121 837.337 138.214C837.337 152.398 848.182 156.327 865.683 158.074C866.509 158.155 867.312 158.236 868.079 158.325V145.991C851.779 143.655 850.047 142.165 850.047 137.786C850.047 133.894 851.75 128.697 866.479 128.697C867.032 128.697 867.563 128.704 868.086 128.711V117.336C867.555 117.322 867.017 117.322 866.479 117.322Z" fill="#7AA736"/>
</g>
</g>
<g filter="url(#filter3_d_2_9415)">
<circle cx="676.431" cy="154.615" r="116.612" fill="#3C3338"/>
<mask id="mask2_2_9415" style="mask-type:alpha" maskUnits="userSpaceOnUse" x="598" y="73" width="186" height="186">
<rect x="598.422" y="73.39" width="184.971" height="184.971" fill="#EAAED0"/>
</mask>
<g mask="url(#mask2_2_9415)">
<path d="M675.495 196.706C688.34 196.706 699.258 192.21 708.25 183.218C717.242 174.227 721.738 163.308 721.738 150.463C721.738 137.618 717.242 126.699 708.25 117.708C699.258 108.716 688.34 104.22 675.495 104.22C662.65 104.22 651.731 108.716 642.739 117.708C633.748 126.699 629.252 137.618 629.252 150.463C629.252 163.308 633.748 174.227 642.739 183.218C651.731 192.21 662.65 196.706 675.495 196.706ZM667.402 177.823L710.948 134.085L699.965 123.103L667.402 155.858L651.025 139.673L640.042 150.463L667.402 177.823ZM675.495 212.12C658.282 212.12 643.703 206.147 631.757 194.201C619.811 182.255 613.838 167.676 613.838 150.463C613.838 133.25 619.811 118.671 631.757 106.725C643.703 94.7788 658.282 88.8057 675.495 88.8057C692.707 88.8057 707.287 94.7788 719.233 106.725C731.179 118.671 737.152 133.25 737.152 150.463C737.152 157.656 736.028 164.432 733.78 170.79C731.532 177.149 728.353 182.961 724.242 188.228L755.247 219.425L744.457 230.215L713.26 199.211C707.993 203.321 702.181 206.5 695.822 208.748C689.464 210.996 682.688 212.12 675.495 212.12Z" fill="#EAAED0"/>
</g>
</g>
<g filter="url(#filter4_d_2_9415)">
<circle cx="505.164" cy="154.615" r="116.596" fill="#FFF56D"/>
<mask id="mask3_2_9415" style="mask-type:alpha" maskUnits="userSpaceOnUse" x="438" y="83" width="144" height="144">
<rect x="438.365" y="83.7491" width="142.77" height="142.77" fill="#FFD100"/>
</mask>
<g mask="url(#mask3_2_9415)">
<path d="M527.601 202.726V190.829H503.806V161.085H491.909V172.983H450.267V137.29H491.909V149.188H503.806V119.444H527.601V107.546H569.242V143.239H527.601V131.341H515.704V178.931H527.601V167.034H569.242V202.726H527.601ZM539.499 190.829H557.345V178.931H539.499V190.829ZM462.165 161.085H480.011V149.188H462.165V161.085ZM539.499 131.341H557.345V119.444H539.499V131.341Z" fill="#B0961E"/>
</g>
</g>
<g filter="url(#filter5_d_2_9415)">
<circle cx="333.896" cy="154.615" r="116.612" fill="#3E3300"/>
<g clip-path="url(#clip1_2_9415)">
<path d="M335.552 68.6065C290.749 68.6065 293.547 88.1138 293.547 88.1138L293.596 108.324H336.351V114.392H276.615C276.615 114.392 247.945 111.127 247.945 156.515C247.945 201.904 272.969 200.294 272.969 200.294H287.903V179.232C287.903 179.232 287.098 154.108 312.527 154.108H354.932C354.932 154.108 378.756 154.494 378.756 130.99V92.1263C378.756 92.1263 382.375 68.6065 335.552 68.6065ZM311.977 82.1975C312.988 82.1966 313.988 82.3957 314.922 82.7834C315.855 83.1712 316.704 83.74 317.418 84.4573C318.132 85.1746 318.699 86.0262 319.085 86.9636C319.471 87.9009 319.67 88.9055 319.669 89.9199C319.67 90.9343 319.471 91.9389 319.085 92.8762C318.699 93.8136 318.132 94.6653 317.418 95.3825C316.704 96.0998 315.855 96.6686 314.922 97.0564C313.988 97.4441 312.988 97.6433 311.977 97.6423C310.967 97.6433 309.966 97.4441 309.033 97.0564C308.099 96.6686 307.251 96.0998 306.537 95.3825C305.822 94.6653 305.256 93.8136 304.869 92.8762C304.483 91.9389 304.285 90.9343 304.286 89.9199C304.285 88.9055 304.483 87.9009 304.869 86.9636C305.256 86.0262 305.822 85.1746 306.537 84.4573C307.251 83.74 308.099 83.1712 309.033 82.7834C309.966 82.3957 310.967 82.1966 311.977 82.1975Z" fill="url(#paint0_linear_2_9415)"/>
<path d="M336.823 244.881C381.627 244.881 378.829 225.373 378.829 225.373L378.779 205.164H336.024V199.096H395.76C395.76 199.096 424.43 202.361 424.43 156.972C424.43 111.584 399.406 113.193 399.406 113.193H384.472V134.255C384.472 134.255 385.277 159.379 359.848 159.379H317.443C317.443 159.379 293.619 158.992 293.619 182.498V221.362C293.619 221.362 290.001 244.881 336.823 244.881H336.823ZM360.398 231.291C359.388 231.292 358.388 231.093 357.454 230.705C356.52 230.317 355.672 229.749 354.958 229.031C354.243 228.314 353.677 227.462 353.291 226.525C352.904 225.588 352.706 224.583 352.707 223.569C352.706 222.554 352.904 221.55 353.29 220.612C353.676 219.675 354.243 218.823 354.957 218.106C355.672 217.388 356.52 216.819 357.454 216.432C358.387 216.044 359.388 215.845 360.398 215.846C361.409 215.845 362.409 216.044 363.343 216.432C364.277 216.819 365.125 217.388 365.839 218.105C366.554 218.823 367.12 219.674 367.506 220.612C367.893 221.549 368.091 222.554 368.09 223.568C368.091 224.582 367.893 225.587 367.506 226.524C367.12 227.462 366.554 228.313 365.839 229.031C365.125 229.748 364.277 230.317 363.343 230.705C362.409 231.092 361.409 231.292 360.398 231.291Z" fill="url(#paint1_linear_2_9415)"/>
</g>
</g>
<g filter="url(#filter6_d_2_9415)">
<circle cx="162.612" cy="154.615" r="116.612" fill="url(#paint2_linear_2_9415)"/>
<path fill-rule="evenodd" clip-rule="evenodd" d="M247.499 179.664C247.786 176.831 247.933 173.957 247.933 171.048C247.933 124.367 210.09 86.5238 163.408 86.5238C116.727 86.5238 78.884 124.367 78.884 171.048C78.884 173.954 79.0307 176.826 79.317 179.657C83.6332 137.022 119.635 103.748 163.408 103.748C207.183 103.748 243.186 137.026 247.499 179.664Z" fill="black"/>
<rect x="160.293" y="72.4393" width="4.6958" height="156.527" fill="black"/>
<path d="M162.617 52.0888L172.784 80.2636L162.619 73.2199L152.45 80.2636L162.617 52.0888Z" fill="black"/>
<path d="M164.959 178.875L177.481 197.658V221.137L164.959 202.354V178.875Z" fill="black"/>
<path d="M164.959 205.491L177.481 224.275V247.754L164.959 228.97V205.491Z" fill="black"/>
<path d="M160.293 178.875L147.771 197.658V221.137L160.293 202.354V178.875Z" fill="black"/>
<path d="M160.293 205.491L147.771 224.275V247.754L160.293 228.97V205.491Z" fill="black"/>
</g>
<defs>
<filter id="filter0_d_2_9415" x="1028.38" y="0.254295" width="323.82" height="323.82" filterUnits="userSpaceOnUse" color-interpolation-filters="sRGB">
<feFlood flood-opacity="0" result="BackgroundImageFix"/>
<feColorMatrix in="SourceAlpha" type="matrix" values="0 0 0 0 0 0 0 0 0 0 0 0 0 0 0 0 0 0 127 0" result="hardAlpha"/>
<feOffset dy="7.54914"/>
<feGaussianBlur stdDeviation="22.6474"/>
<feComposite in2="hardAlpha" operator="out"/>
<feColorMatrix type="matrix" values="0 0 0 0 0 0 0 0 0 0 0 0 0 0 0 0 0 0 0.35 0"/>
<feBlend mode="normal" in2="BackgroundImageFix" result="effect1_dropShadow_2_9415"/>
<feBlend mode="normal" in="SourceGraphic" in2="effect1_dropShadow_2_9415" result="shape"/>
</filter>
<filter id="filter1_d_2_9415" x="857.092" y="0.257225" width="323.815" height="323.815" filterUnits="userSpaceOnUse" color-interpolation-filters="sRGB">
<feFlood flood-opacity="0" result="BackgroundImageFix"/>
<feColorMatrix in="SourceAlpha" type="matrix" values="0 0 0 0 0 0 0 0 0 0 0 0 0 0 0 0 0 0 127 0" result="hardAlpha"/>
<feOffset dy="7.54914"/>
<feGaussianBlur stdDeviation="22.6474"/>
<feComposite in2="hardAlpha" operator="out"/>
<feColorMatrix type="matrix" values="0 0 0 0 0 0 0 0 0 0 0 0 0 0 0 0 0 0 0.35 0"/>
<feBlend mode="normal" in2="BackgroundImageFix" result="effect1_dropShadow_2_9415"/>
<feBlend mode="normal" in="SourceGraphic" in2="effect1_dropShadow_2_9415" result="shape"/>
</filter>
<filter id="filter2_d_2_9415" x="685.808" y="0.257225" width="323.815" height="323.815" filterUnits="userSpaceOnUse" color-interpolation-filters="sRGB">
<feFlood flood-opacity="0" result="BackgroundImageFix"/>
<feColorMatrix in="SourceAlpha" type="matrix" values="0 0 0 0 0 0 0 0 0 0 0 0 0 0 0 0 0 0 127 0" result="hardAlpha"/>
<feOffset dy="7.54914"/>
<feGaussianBlur stdDeviation="22.6474"/>
<feComposite in2="hardAlpha" operator="out"/>
<feColorMatrix type="matrix" values="0 0 0 0 0 0 0 0 0 0 0 0 0 0 0 0 0 0 0.35 0"/>
<feBlend mode="normal" in2="BackgroundImageFix" result="effect1_dropShadow_2_9415"/>
<feBlend mode="normal" in="SourceGraphic" in2="effect1_dropShadow_2_9415" result="shape"/>
</filter>
<filter id="filter3_d_2_9415" x="514.524" y="0.257225" width="323.815" height="323.815" filterUnits="userSpaceOnUse" color-interpolation-filters="sRGB">
<feFlood flood-opacity="0" result="BackgroundImageFix"/>
<feColorMatrix in="SourceAlpha" type="matrix" values="0 0 0 0 0 0 0 0 0 0 0 0 0 0 0 0 0 0 127 0" result="hardAlpha"/>
<feOffset dy="7.54914"/>
<feGaussianBlur stdDeviation="22.6474"/>
<feComposite in2="hardAlpha" operator="out"/>
<feColorMatrix type="matrix" values="0 0 0 0 0 0 0 0 0 0 0 0 0 0 0 0 0 0 0.35 0"/>
<feBlend mode="normal" in2="BackgroundImageFix" result="effect1_dropShadow_2_9415"/>
<feBlend mode="normal" in="SourceGraphic" in2="effect1_dropShadow_2_9415" result="shape"/>
</filter>
<filter id="filter4_d_2_9415" x="343.274" y="0.274026" width="323.781" height="323.781" filterUnits="userSpaceOnUse" color-interpolation-filters="sRGB">
<feFlood flood-opacity="0" result="BackgroundImageFix"/>
<feColorMatrix in="SourceAlpha" type="matrix" values="0 0 0 0 0 0 0 0 0 0 0 0 0 0 0 0 0 0 127 0" result="hardAlpha"/>
<feOffset dy="7.54914"/>
<feGaussianBlur stdDeviation="22.6474"/>
<feComposite in2="hardAlpha" operator="out"/>
<feColorMatrix type="matrix" values="0 0 0 0 0 0 0 0 0 0 0 0 0 0 0 0 0 0 0.35 0"/>
<feBlend mode="normal" in2="BackgroundImageFix" result="effect1_dropShadow_2_9415"/>
<feBlend mode="normal" in="SourceGraphic" in2="effect1_dropShadow_2_9415" result="shape"/>
</filter>
<filter id="filter5_d_2_9415" x="171.989" y="0.257225" width="323.815" height="323.815" filterUnits="userSpaceOnUse" color-interpolation-filters="sRGB">
<feFlood flood-opacity="0" result="BackgroundImageFix"/>
<feColorMatrix in="SourceAlpha" type="matrix" values="0 0 0 0 0 0 0 0 0 0 0 0 0 0 0 0 0 0 127 0" result="hardAlpha"/>
<feOffset dy="7.54914"/>
<feGaussianBlur stdDeviation="22.6474"/>
<feComposite in2="hardAlpha" operator="out"/>
<feColorMatrix type="matrix" values="0 0 0 0 0 0 0 0 0 0 0 0 0 0 0 0 0 0 0.35 0"/>
<feBlend mode="normal" in2="BackgroundImageFix" result="effect1_dropShadow_2_9415"/>
<feBlend mode="normal" in="SourceGraphic" in2="effect1_dropShadow_2_9415" result="shape"/>
</filter>
<filter id="filter6_d_2_9415" x="0.705154" y="0.257217" width="323.815" height="323.815" filterUnits="userSpaceOnUse" color-interpolation-filters="sRGB">
<feFlood flood-opacity="0" result="BackgroundImageFix"/>
<feColorMatrix in="SourceAlpha" type="matrix" values="0 0 0 0 0 0 0 0 0 0 0 0 0 0 0 0 0 0 127 0" result="hardAlpha"/>
<feOffset dy="7.54914"/>
<feGaussianBlur stdDeviation="22.6474"/>
<feComposite in2="hardAlpha" operator="out"/>
<feColorMatrix type="matrix" values="0 0 0 0 0 0 0 0 0 0 0 0 0 0 0 0 0 0 0.35 0"/>
<feBlend mode="normal" in2="BackgroundImageFix" result="effect1_dropShadow_2_9415"/>
<feBlend mode="normal" in="SourceGraphic" in2="effect1_dropShadow_2_9415" result="shape"/>
</filter>
<linearGradient id="paint0_linear_2_9415" x1="1943.96" y1="1654.08" x2="10724.8" y2="10312.5" gradientUnits="userSpaceOnUse">
<stop stop-color="#387EB8"/>
<stop offset="1" stop-color="#366994"/>
</linearGradient>
<linearGradient id="paint1_linear_2_9415" x1="2796.95" y1="2823.33" x2="12224.8" y2="11700.1" gradientUnits="userSpaceOnUse">
<stop stop-color="#FFE052"/>
<stop offset="1" stop-color="#FFC331"/>
</linearGradient>
<linearGradient id="paint2_linear_2_9415" x1="60.5765" y1="252.957" x2="279.236" y2="255.009" gradientUnits="userSpaceOnUse">
<stop stop-color="#09CAFF"/>
<stop offset="1" stop-color="#19FE93"/>
</linearGradient>
<clipPath id="clip0_2_9415">
<rect width="176.929" height="176.929" fill="white" transform="translate(760.859 63.7407)"/>
</clipPath>
<clipPath id="clip1_2_9415">
<rect width="176.929" height="176.929" fill="white" transform="translate(247.846 68.561)"/>
</clipPath>
</defs>
</svg>
