<svg width="1352" height="325" viewBox="0 0 1352 325" fill="none" xmlns="http://www.w3.org/2000/svg">
<g filter="url(#filter0_d_2_9460)">
<circle cx="1174.99" cy="154.596" r="116.596" fill="#D8FFFC"/>
<mask id="mask0_2_9460" style="mask-type:alpha" maskUnits="userSpaceOnUse" x="1105" y="85" width="144" height="144">
<rect x="1105.98" y="85.5848" width="142.77" height="142.77" fill="#D9D9D9"/>
</mask>
<g mask="url(#mask0_2_9460)">
<path d="M1129.78 210.52V180.776C1129.78 177.504 1130.94 174.703 1133.27 172.373C1135.6 170.043 1138.4 168.878 1141.67 168.878H1213.06C1216.33 168.878 1219.13 170.043 1221.46 172.373C1223.79 174.703 1224.96 177.504 1224.96 180.776V210.52H1129.78ZM1159.52 162.93C1151.29 162.93 1144.28 160.03 1138.48 154.23C1132.68 148.429 1129.78 141.415 1129.78 133.186C1129.78 124.957 1132.68 117.942 1138.48 112.142C1144.28 106.342 1151.29 103.442 1159.52 103.442H1195.21C1203.44 103.442 1210.46 106.342 1216.26 112.142C1222.06 117.942 1224.96 124.957 1224.96 133.186C1224.96 141.415 1222.06 148.429 1216.26 154.23C1210.46 160.03 1203.44 162.93 1195.21 162.93H1159.52ZM1141.67 198.622H1213.06V180.776H1141.67V198.622ZM1159.52 151.032H1195.21C1200.17 151.032 1204.38 149.297 1207.85 145.827C1211.32 142.357 1213.06 138.143 1213.06 133.186C1213.06 128.228 1211.32 124.015 1207.85 120.545C1204.38 117.075 1200.17 115.34 1195.21 115.34H1159.52C1154.56 115.34 1150.35 117.075 1146.88 120.545C1143.41 124.015 1141.67 128.228 1141.67 133.186C1141.67 138.143 1143.41 142.357 1146.88 145.827C1150.35 149.297 1154.56 151.032 1159.52 151.032ZM1159.52 139.135C1161.21 139.135 1162.62 138.564 1163.76 137.424C1164.9 136.284 1165.47 134.871 1165.47 133.186C1165.47 131.5 1164.9 130.087 1163.76 128.947C1162.62 127.807 1161.21 127.237 1159.52 127.237C1157.84 127.237 1156.42 127.807 1155.28 128.947C1154.14 130.087 1153.57 131.5 1153.57 133.186C1153.57 134.871 1154.14 136.284 1155.28 137.424C1156.42 138.564 1157.84 139.135 1159.52 139.135ZM1195.21 139.135C1196.9 139.135 1198.31 138.564 1199.45 137.424C1200.59 136.284 1201.16 134.871 1201.16 133.186C1201.16 131.5 1200.59 130.087 1199.45 128.947C1198.31 127.807 1196.9 127.237 1195.21 127.237C1193.53 127.237 1192.11 127.807 1190.97 128.947C1189.83 130.087 1189.26 131.5 1189.26 133.186C1189.26 134.871 1189.83 136.284 1190.97 137.424C1192.11 138.564 1193.53 139.135 1195.21 139.135Z" fill="#40E6B2"/>
</g>
</g>
<g filter="url(#filter1_d_2_9460)">
<circle cx="1003.74" cy="154.596" r="116.596" fill="#FFF9DC"/>
<mask id="mask1_2_9460" style="mask-type:alpha" maskUnits="userSpaceOnUse" x="934" y="85" width="144" height="144">
<rect x="934.73" y="85.5848" width="142.77" height="142.77" fill="#D9D9D9"/>
</mask>
<g mask="url(#mask1_2_9460)">
<path d="M976.374 186.714H988.272V156.97H976.374V186.714ZM1023.96 186.714H1035.86V127.226H1023.96V186.714ZM1000.17 186.714H1012.07V168.868H1000.17V186.714ZM1000.17 156.97H1012.07V145.073H1000.17V156.97ZM964.477 210.509C961.205 210.509 958.404 209.344 956.074 207.014C953.744 204.684 952.579 201.883 952.579 198.611V115.329C952.579 112.057 953.744 109.256 956.074 106.926C958.404 104.596 961.205 103.431 964.477 103.431H1047.76C1051.03 103.431 1053.83 104.596 1056.16 106.926C1058.49 109.256 1059.66 112.057 1059.66 115.329V198.611C1059.66 201.883 1058.49 204.684 1056.16 207.014C1053.83 209.344 1051.03 210.509 1047.76 210.509H964.477ZM964.477 198.611H1047.76V115.329H964.477V198.611Z" fill="#FFD61B"/>
</g>
</g>
<g filter="url(#filter2_d_2_9460)">
<circle cx="832.485" cy="154.596" r="116.596" fill="#E0FFB2"/>
<mask id="mask2_2_9460" style="mask-type:alpha" maskUnits="userSpaceOnUse" x="765" y="83" width="144" height="144">
<rect x="765.685" y="83.7312" width="142.77" height="142.77" fill="#D9D9D9"/>
</mask>
<g mask="url(#mask2_2_9460)">
<path d="M812.015 193.5L773.549 155.117L812.015 116.651L823.266 127.817L795.902 155.181L823.117 182.397L812.015 193.5ZM862.128 193.583L850.877 182.418L878.241 155.053L851.026 127.838L862.128 116.734L900.594 155.117L862.128 193.583Z" fill="#8CC03E"/>
</g>
</g>
<g filter="url(#filter3_d_2_9460)">
<circle cx="661.235" cy="154.596" r="116.596" fill="#FFF56D"/>
<mask id="mask3_2_9460" style="mask-type:alpha" maskUnits="userSpaceOnUse" x="594" y="83" width="144" height="144">
<rect x="594.435" y="83.7312" width="142.77" height="142.77" fill="#FFD100"/>
</mask>
<g mask="url(#mask3_2_9460)">
<path d="M683.671 202.709V190.811H659.876V161.067H647.979V172.965H606.338V137.272H647.979V149.17H659.876V119.426H683.671V107.528H725.313V143.221H683.671V131.323H671.774V178.914H683.671V167.016H725.313V202.709H683.671ZM695.569 190.811H713.415V178.914H695.569V190.811ZM618.235 161.067H636.081V149.17H618.235V161.067ZM695.569 131.323H713.415V119.426H695.569V131.323Z" fill="#B0961E"/>
</g>
</g>
<g filter="url(#filter4_d_2_9460)">
<circle cx="489.984" cy="154.596" r="116.596" fill="#5C26FF"/>
<mask id="mask4_2_9460" style="mask-type:alpha" maskUnits="userSpaceOnUse" x="409" y="85" width="167" height="144">
<rect x="409.08" y="85.5848" width="166.565" height="142.77" fill="#D9D9D9"/>
</mask>
<g mask="url(#mask4_2_9460)">
<path d="M453.7 191.622C444.074 191.622 435.892 188.253 429.155 181.515C422.417 174.778 419.048 166.596 419.048 156.97C419.048 147.344 422.417 139.163 429.155 132.426C435.892 125.688 444.074 122.319 453.7 122.319C457.592 122.319 461.336 123.005 464.931 124.378C468.526 125.752 471.746 127.712 474.592 130.259L483.612 138.303L471.83 148.939L464.039 142.04C462.621 140.82 461.019 139.855 459.232 139.146C457.444 138.437 455.6 138.083 453.7 138.083C448.454 138.083 443.994 139.919 440.321 143.591C436.649 147.265 434.812 151.724 434.812 156.97C434.812 162.216 436.649 166.676 440.321 170.349C443.994 174.021 448.454 175.857 453.7 175.857C455.6 175.857 457.444 175.503 459.232 174.794C461.019 174.085 462.621 173.121 464.039 171.9L510.142 130.259C512.987 127.712 516.207 125.752 519.802 124.378C523.397 123.005 527.141 122.319 531.034 122.319C540.66 122.319 548.841 125.688 555.578 132.426C562.316 139.163 565.685 147.344 565.685 156.97C565.685 166.596 562.316 174.778 555.578 181.515C548.841 188.253 540.66 191.622 531.034 191.622C527.141 191.622 523.397 190.935 519.802 189.562C516.207 188.189 512.987 186.229 510.142 183.682L501.122 175.637L512.903 165.001L520.695 171.9C522.112 173.121 523.715 174.085 525.501 174.794C527.289 175.503 529.133 175.857 531.034 175.857C536.279 175.857 540.739 174.021 544.412 170.349C548.085 166.676 549.921 162.216 549.921 156.97C549.921 151.724 548.085 147.265 544.412 143.591C540.739 139.919 536.279 138.083 531.034 138.083C529.133 138.083 527.289 138.437 525.501 139.146C523.715 139.855 522.112 140.82 520.695 142.04L474.592 183.682C471.746 186.229 468.526 188.189 464.931 189.562C461.336 190.935 457.592 191.622 453.7 191.622Z" fill="#8662F3"/>
</g>
</g>
<g filter="url(#filter5_d_2_9460)">
<circle cx="318.734" cy="154.596" r="116.596" fill="#FBD3FF"/>
<mask id="mask5_2_9460" style="mask-type:alpha" maskUnits="userSpaceOnUse" x="249" y="85" width="144" height="144">
<rect x="249.726" y="85.5848" width="142.77" height="142.77" fill="#D9D9D9"/>
</mask>
<g mask="url(#mask5_2_9460)">
<path d="M302.077 150.725L314.867 137.786L306.539 129.309L299.995 135.853L291.667 127.524L298.062 120.981L291.37 114.288L278.431 127.227L302.077 150.725ZM350.857 199.653L363.796 186.715L357.103 180.022L350.56 186.417L342.231 178.089L348.626 171.545L340.149 163.217L327.359 176.007L350.857 199.653ZM292.857 210.51H267.574V185.227L293.6 159.202L261.626 127.227L291.37 97.4832L323.493 129.606L345.949 107.001C347.139 105.811 348.478 104.919 349.965 104.324C351.452 103.729 352.989 103.432 354.575 103.432C356.161 103.432 357.698 103.729 359.185 104.324C360.673 104.919 362.011 105.811 363.201 107.001L371.083 115.032C372.273 116.222 373.165 117.56 373.76 119.047C374.355 120.535 374.652 122.071 374.652 123.658C374.652 125.244 374.355 126.756 373.76 128.194C373.165 129.631 372.273 130.945 371.083 132.135L348.626 154.74L380.601 186.715L350.857 216.458L318.883 184.484L292.857 210.51ZM279.472 198.612H287.8L346.098 140.463L337.621 131.986L279.472 190.284V198.612Z" fill="#F268FF"/>
</g>
</g>
<g filter="url(#filter6_d_2_9460)">
<circle cx="147.483" cy="154.596" r="116.596" fill="#1967FE"/>
<path d="M170.06 233.627C166.953 233.233 163.82 232.985 160.744 232.424C128.737 226.58 105.815 208.863 92.014 179.505C86.6011 167.99 84.2263 155.703 84.1699 142.995C84.14 136.259 83.8922 129.486 84.4563 122.79C85.9304 105.293 94.5067 91.9635 109.421 82.784C117.538 77.7877 126.511 75.5485 136.047 75.5591C143.673 75.5675 151.299 75.55 158.925 75.5627C183.839 75.6043 204.611 92.3581 209.701 116.687C210.453 120.283 210.777 124.031 210.785 127.71C210.866 161.308 210.82 194.906 210.858 228.504C210.861 230.935 210.109 232.699 207.78 233.627H170.06ZM202.912 126.764C202.661 115.053 198.511 104.91 190.3 96.3963C188.685 94.7218 187.119 94.0057 184.662 94.2752C169.691 95.9175 159.476 103.582 154.237 117.719C152.287 122.981 151.496 128.462 151.488 134.059C151.485 135.878 151.007 137.426 149.282 138.324C146.568 139.736 143.752 137.825 143.483 134.557C143.163 130.673 142.98 126.739 142.2 122.936C138.942 107.072 128.031 96.889 112.037 94.4884C107.303 93.7777 107.069 93.783 103.874 97.2889C95.0076 107.021 90.9648 118.426 92.4557 131.569C93.4036 139.926 96.7398 147.45 101.686 154.169C115.222 172.556 133.408 180.667 156.124 177.592C170.103 175.7 181.645 168.89 190.704 158.106C198.275 149.093 202.696 138.769 202.912 126.764ZM93.2829 156.515C97.6925 179.813 109.452 198.309 129.083 211.649C146.307 223.353 165.56 227 186.184 225.473C174.198 213.257 171.385 197.99 171.206 181.999C139.116 192.103 113.438 183.133 93.2829 156.515ZM202.816 154.662C196.566 163.144 188.885 170.754 179.773 177.491C179.434 177.741 179.161 178.321 179.157 178.749C179.094 186.116 179.359 193.456 181.19 200.651C183.836 211.053 189.197 219.494 198.684 225.011C200.037 225.797 201.353 225.814 202.816 225.548V154.662ZM177.15 87.4296C176.618 87.1429 176.285 86.921 175.922 86.7736C171.259 84.8824 166.432 83.6214 161.386 83.5676C152.528 83.4731 143.669 83.5076 134.811 83.5159C129.708 83.5207 124.8 84.5791 120.047 86.3909C119.347 86.6576 118.674 86.9954 117.749 87.4072C131.965 90.8615 141.741 99.1807 147.498 112.464C153.286 99.1055 163.072 90.8669 177.15 87.4296Z" fill="white"/>
<path d="M179.153 130.867C174.789 130.863 171.307 127.402 171.288 123.049C171.268 118.626 174.787 115.083 179.191 115.094C183.512 115.106 187.054 118.624 187.081 122.933C187.109 127.332 183.573 130.872 179.153 130.867Z" fill="white"/>
<path d="M123.674 122.984C123.678 127.348 120.222 130.837 115.87 130.865C111.439 130.893 107.881 127.388 107.879 122.994C107.878 118.618 111.47 115.064 115.861 115.094C120.199 115.125 123.67 118.63 123.674 122.984Z" fill="white"/>
</g>
<defs>
<filter id="filter0_d_2_9460" x="1028.19" y="0.254295" width="323.781" height="323.781" filterUnits="userSpaceOnUse" color-interpolation-filters="sRGB">
<feFlood flood-opacity="0" result="BackgroundImageFix"/>
<feColorMatrix in="SourceAlpha" type="matrix" values="0 0 0 0 0 0 0 0 0 0 0 0 0 0 0 0 0 0 127 0" result="hardAlpha"/>
<feOffset dx="15.0983" dy="7.54914"/>
<feGaussianBlur stdDeviation="22.6474"/>
<feComposite in2="hardAlpha" operator="out"/>
<feColorMatrix type="matrix" values="0 0 0 0 0 0 0 0 0 0 0 0 0 0 0 0 0 0 0.35 0"/>
<feBlend mode="normal" in2="BackgroundImageFix" result="effect1_dropShadow_2_9460"/>
<feBlend mode="normal" in="SourceGraphic" in2="effect1_dropShadow_2_9460" result="shape"/>
</filter>
<filter id="filter1_d_2_9460" x="856.944" y="0.254295" width="323.781" height="323.781" filterUnits="userSpaceOnUse" color-interpolation-filters="sRGB">
<feFlood flood-opacity="0" result="BackgroundImageFix"/>
<feColorMatrix in="SourceAlpha" type="matrix" values="0 0 0 0 0 0 0 0 0 0 0 0 0 0 0 0 0 0 127 0" result="hardAlpha"/>
<feOffset dx="15.0983" dy="7.54914"/>
<feGaussianBlur stdDeviation="22.6474"/>
<feComposite in2="hardAlpha" operator="out"/>
<feColorMatrix type="matrix" values="0 0 0 0 0 0 0 0 0 0 0 0 0 0 0 0 0 0 0.35 0"/>
<feBlend mode="normal" in2="BackgroundImageFix" result="effect1_dropShadow_2_9460"/>
<feBlend mode="normal" in="SourceGraphic" in2="effect1_dropShadow_2_9460" result="shape"/>
</filter>
<filter id="filter2_d_2_9460" x="685.693" y="0.254295" width="323.781" height="323.781" filterUnits="userSpaceOnUse" color-interpolation-filters="sRGB">
<feFlood flood-opacity="0" result="BackgroundImageFix"/>
<feColorMatrix in="SourceAlpha" type="matrix" values="0 0 0 0 0 0 0 0 0 0 0 0 0 0 0 0 0 0 127 0" result="hardAlpha"/>
<feOffset dx="15.0983" dy="7.54914"/>
<feGaussianBlur stdDeviation="22.6474"/>
<feComposite in2="hardAlpha" operator="out"/>
<feColorMatrix type="matrix" values="0 0 0 0 0 0 0 0 0 0 0 0 0 0 0 0 0 0 0.35 0"/>
<feBlend mode="normal" in2="BackgroundImageFix" result="effect1_dropShadow_2_9460"/>
<feBlend mode="normal" in="SourceGraphic" in2="effect1_dropShadow_2_9460" result="shape"/>
</filter>
<filter id="filter3_d_2_9460" x="514.443" y="0.254289" width="323.781" height="323.781" filterUnits="userSpaceOnUse" color-interpolation-filters="sRGB">
<feFlood flood-opacity="0" result="BackgroundImageFix"/>
<feColorMatrix in="SourceAlpha" type="matrix" values="0 0 0 0 0 0 0 0 0 0 0 0 0 0 0 0 0 0 127 0" result="hardAlpha"/>
<feOffset dx="15.0983" dy="7.54914"/>
<feGaussianBlur stdDeviation="22.6474"/>
<feComposite in2="hardAlpha" operator="out"/>
<feColorMatrix type="matrix" values="0 0 0 0 0 0 0 0 0 0 0 0 0 0 0 0 0 0 0.35 0"/>
<feBlend mode="normal" in2="BackgroundImageFix" result="effect1_dropShadow_2_9460"/>
<feBlend mode="normal" in="SourceGraphic" in2="effect1_dropShadow_2_9460" result="shape"/>
</filter>
<filter id="filter4_d_2_9460" x="343.192" y="0.254295" width="323.781" height="323.781" filterUnits="userSpaceOnUse" color-interpolation-filters="sRGB">
<feFlood flood-opacity="0" result="BackgroundImageFix"/>
<feColorMatrix in="SourceAlpha" type="matrix" values="0 0 0 0 0 0 0 0 0 0 0 0 0 0 0 0 0 0 127 0" result="hardAlpha"/>
<feOffset dx="15.0983" dy="7.54914"/>
<feGaussianBlur stdDeviation="22.6474"/>
<feComposite in2="hardAlpha" operator="out"/>
<feColorMatrix type="matrix" values="0 0 0 0 0 0 0 0 0 0 0 0 0 0 0 0 0 0 0.35 0"/>
<feBlend mode="normal" in2="BackgroundImageFix" result="effect1_dropShadow_2_9460"/>
<feBlend mode="normal" in="SourceGraphic" in2="effect1_dropShadow_2_9460" result="shape"/>
</filter>
<filter id="filter5_d_2_9460" x="171.942" y="0.254295" width="323.781" height="323.781" filterUnits="userSpaceOnUse" color-interpolation-filters="sRGB">
<feFlood flood-opacity="0" result="BackgroundImageFix"/>
<feColorMatrix in="SourceAlpha" type="matrix" values="0 0 0 0 0 0 0 0 0 0 0 0 0 0 0 0 0 0 127 0" result="hardAlpha"/>
<feOffset dx="15.0983" dy="7.54914"/>
<feGaussianBlur stdDeviation="22.6474"/>
<feComposite in2="hardAlpha" operator="out"/>
<feColorMatrix type="matrix" values="0 0 0 0 0 0 0 0 0 0 0 0 0 0 0 0 0 0 0.35 0"/>
<feBlend mode="normal" in2="BackgroundImageFix" result="effect1_dropShadow_2_9460"/>
<feBlend mode="normal" in="SourceGraphic" in2="effect1_dropShadow_2_9460" result="shape"/>
</filter>
<filter id="filter6_d_2_9460" x="0.691132" y="0.254295" width="323.781" height="323.781" filterUnits="userSpaceOnUse" color-interpolation-filters="sRGB">
<feFlood flood-opacity="0" result="BackgroundImageFix"/>
<feColorMatrix in="SourceAlpha" type="matrix" values="0 0 0 0 0 0 0 0 0 0 0 0 0 0 0 0 0 0 127 0" result="hardAlpha"/>
<feOffset dx="15.0983" dy="7.54914"/>
<feGaussianBlur stdDeviation="22.6474"/>
<feComposite in2="hardAlpha" operator="out"/>
<feColorMatrix type="matrix" values="0 0 0 0 0 0 0 0 0 0 0 0 0 0 0 0 0 0 0.35 0"/>
<feBlend mode="normal" in2="BackgroundImageFix" result="effect1_dropShadow_2_9460"/>
<feBlend mode="normal" in="SourceGraphic" in2="effect1_dropShadow_2_9460" result="shape"/>
</filter>
</defs>
</svg>
